<svg xmlns="http://www.w3.org/2000/svg" width="1200" height="360" viewBox="0 0 1200 360" role="img" aria-labelledby="t d" font-family="-apple-system, BlinkMacSystemFont, 'Segoe UI', sans-serif">
  <title id="t">Parsa Amirabadi — Senior Frontend Engineer</title>
  <desc id="d">Dark hero: name, role, a row of technology logos (React, TypeScript, Next.js, Tailwind, Nx, Bun, WebAssembly, Telegram), and a terminal building the DiceX Nx monorepo.</desc>
  <defs>
    <linearGradient id="ink" x1="0" y1="0" x2="1" y2="1"><stop offset="0" stop-color="#0d1117"/><stop offset="1" stop-color="#0a0c12"/></linearGradient>
    <linearGradient id="brand" x1="0" y1="0" x2="1" y2="1"><stop offset="0" stop-color="#818cf8"/><stop offset="1" stop-color="#2dd4bf"/></linearGradient>
  </defs>
  <rect width="1200" height="360" rx="24" fill="url(#ink)"/>
  <rect x="1" y="1" width="1198" height="358" rx="23" fill="none" stroke="#21262d"/>
  <g transform="translate(64 52)">
    <rect width="44" height="44" rx="12" fill="none" stroke="url(#brand)" stroke-width="2"/>
    <circle cx="14" cy="14" r="3.4" fill="#2dd4bf"/><circle cx="30" cy="14" r="3.4" fill="#818cf8"/><circle cx="22" cy="22" r="3.4" fill="#e6edf3"/><circle cx="14" cy="30" r="3.4" fill="#818cf8"/><circle cx="30" cy="30" r="3.4" fill="#2dd4bf"/>
  </g>
  <g transform="translate(64 0)">
    <text x="60" y="82" font-family="ui-monospace, SFMono-Regular, Menlo, monospace" font-size="15" letter-spacing="2.5" fill="#2dd4bf">SENIOR FRONTEND ENGINEER<tspan fill="#6e7681">  ·  IRAN</tspan></text>
    <text x="0" y="168" font-size="62" font-weight="700" fill="#e6edf3" letter-spacing="-1">Parsa AmirabadiZadeh</text>
    <text x="2" y="212" font-size="22" fill="#adbac7">Design-system–driven web platforms, built to scale.</text>
    <g><svg x="2" y="250" width="30" height="30" viewBox="0 0 256 228" overflow="visible"><path fill="#00d8ff" d="M210.483 73.824a172 172 0 0 0-8.24-2.597c.465-1.9.893-3.777 1.273-5.621c6.238-30.281 2.16-54.676-11.769-62.708c-13.355-7.7-35.196.329-57.254 19.526a171 171 0 0 0-6.375 5.848a156 156 0 0 0-4.241-3.917C100.759 3.829 77.587-4.822 63.673 3.233C50.33 10.957 46.379 33.89 51.995 62.588a171 171 0 0 0 1.892 8.48c-3.28.932-6.445 1.924-9.474 2.98C17.309 83.498 0 98.307 0 113.668c0 15.865 18.582 31.778 46.812 41.427a146 146 0 0 0 6.921 2.165a168 168 0 0 0-2.01 9.138c-5.354 28.2-1.173 50.591 12.134 58.266c13.744 7.926 36.812-.22 59.273-19.855a146 146 0 0 0 5.342-4.923a168 168 0 0 0 6.92 6.314c21.758 18.722 43.246 26.282 56.54 18.586c13.731-7.949 18.194-32.003 12.4-61.268a145 145 0 0 0-1.535-6.842c1.62-.48 3.21-.974 4.76-1.488c29.348-9.723 48.443-25.443 48.443-41.52c0-15.417-17.868-30.326-45.517-39.844m-6.365 70.984q-2.102.694-4.3 1.345c-3.24-10.257-7.612-21.163-12.963-32.432c5.106-11 9.31-21.767 12.459-31.957c2.619.758 5.16 1.557 7.61 2.4c23.69 8.156 38.14 20.213 38.14 29.504c0 9.896-15.606 22.743-40.946 31.14m-10.514 20.834c2.562 12.94 2.927 24.64 1.23 33.787c-1.524 8.219-4.59 13.698-8.382 15.893c-8.067 4.67-25.32-1.4-43.927-17.412a157 157 0 0 1-6.437-5.87c7.214-7.889 14.423-17.06 21.459-27.246c12.376-1.098 24.068-2.894 34.671-5.345q.785 3.162 1.386 6.193M87.276 214.515c-7.882 2.783-14.16 2.863-17.955.675c-8.075-4.657-11.432-22.636-6.853-46.752a157 157 0 0 1 1.869-8.499c10.486 2.32 22.093 3.988 34.498 4.994c7.084 9.967 14.501 19.128 21.976 27.15a135 135 0 0 1-4.877 4.492c-9.933 8.682-19.886 14.842-28.658 17.94M50.35 144.747c-12.483-4.267-22.792-9.812-29.858-15.863c-6.35-5.437-9.555-10.836-9.555-15.216c0-9.322 13.897-21.212 37.076-29.293c2.813-.98 5.757-1.905 8.812-2.773c3.204 10.42 7.406 21.315 12.477 32.332c-5.137 11.18-9.399 22.249-12.634 32.792a135 135 0 0 1-6.318-1.979m12.378-84.26c-4.811-24.587-1.616-43.134 6.425-47.789c8.564-4.958 27.502 2.111 47.463 19.835a144 144 0 0 1 3.841 3.545c-7.438 7.987-14.787 17.08-21.808 26.988c-12.04 1.116-23.565 2.908-34.161 5.309a160 160 0 0 1-1.76-7.887m110.427 27.268a348 348 0 0 0-7.785-12.803c8.168 1.033 15.994 2.404 23.343 4.08c-2.206 7.072-4.956 14.465-8.193 22.045a381 381 0 0 0-7.365-13.322m-45.032-43.861c5.044 5.465 10.096 11.566 15.065 18.186a322 322 0 0 0-30.257-.006c4.974-6.559 10.069-12.652 15.192-18.18M82.802 87.83a323 323 0 0 0-7.227 13.238c-3.184-7.553-5.909-14.98-8.134-22.152c7.304-1.634 15.093-2.97 23.209-3.984a322 322 0 0 0-7.848 12.897m8.081 65.352c-8.385-.936-16.291-2.203-23.593-3.793c2.26-7.3 5.045-14.885 8.298-22.6a321 321 0 0 0 7.257 13.246c2.594 4.48 5.28 8.868 8.038 13.147m37.542 31.03c-5.184-5.592-10.354-11.779-15.403-18.433c4.902.192 9.899.29 14.978.29c5.218 0 10.376-.117 15.453-.343c-4.985 6.774-10.018 12.97-15.028 18.486m52.198-57.817c3.422 7.8 6.306 15.345 8.596 22.52c-7.422 1.694-15.436 3.058-23.88 4.071a382 382 0 0 0 7.859-13.026a347 347 0 0 0 7.425-13.565m-16.898 8.101a359 359 0 0 1-12.281 19.815a329 329 0 0 1-23.444.823c-7.967 0-15.716-.248-23.178-.732a310 310 0 0 1-12.513-19.846h.001a307 307 0 0 1-10.923-20.627a310 310 0 0 1 10.89-20.637l-.001.001a307 307 0 0 1 12.413-19.761c7.613-.576 15.42-.876 23.31-.876H128c7.926 0 15.743.303 23.354.883a329 329 0 0 1 12.335 19.695a359 359 0 0 1 11.036 20.54a330 330 0 0 1-11 20.722m22.56-122.124c8.572 4.944 11.906 24.881 6.52 51.026q-.518 2.504-1.15 5.09c-10.622-2.452-22.155-4.275-34.23-5.408c-7.034-10.017-14.323-19.124-21.64-27.008a161 161 0 0 1 5.888-5.4c18.9-16.447 36.564-22.941 44.612-18.3M128 90.808c12.625 0 22.86 10.235 22.86 22.86s-10.235 22.86-22.86 22.86s-22.86-10.235-22.86-22.86s10.235-22.86 22.86-22.86"/></svg><svg x="54" y="250" width="30" height="30" viewBox="0 0 256 256" overflow="visible"><path fill="#3178c6" d="M20 0h216c11.046 0 20 8.954 20 20v216c0 11.046-8.954 20-20 20H20c-11.046 0-20-8.954-20-20V20C0 8.954 8.954 0 20 0"/><path fill="#fff" d="M150.518 200.475v27.62q6.738 3.453 15.938 5.179T185.849 235q9.934 0 18.874-1.899t15.678-6.257q6.738-4.359 10.669-11.394q3.93-7.033 3.93-17.391q0-7.51-2.246-13.163a30.8 30.8 0 0 0-6.479-10.055q-4.232-4.402-10.149-7.898t-13.347-6.602q-5.442-2.245-9.761-4.359t-7.342-4.316q-3.024-2.2-4.665-4.661t-1.641-5.567q0-2.848 1.468-5.135q1.469-2.288 4.147-3.927t6.565-2.547q3.887-.906 8.638-.906q3.456 0 7.299.518q3.844.517 7.732 1.597a54 54 0 0 1 7.558 2.719a41.7 41.7 0 0 1 6.781 3.797v-25.807q-6.306-2.417-13.778-3.582T198.633 107q-9.847 0-18.658 2.115q-8.811 2.114-15.506 6.602q-6.694 4.49-10.582 11.437Q150 134.102 150 143.769q0 12.342 7.127 21.06t21.638 14.759a292 292 0 0 1 10.625 4.575q4.924 2.244 8.509 4.66t5.658 5.265t2.073 6.474a9.9 9.9 0 0 1-1.296 4.963q-1.295 2.287-3.93 3.97t-6.565 2.632t-9.2.95q-8.983 0-17.794-3.151t-16.327-9.451m-46.036-68.733H140V109H41v22.742h35.345V233h28.137z"/></svg><svg x="106" y="250" width="30" height="30" viewBox="0 0 24 24" overflow="visible"><path fill="#e6edf3" d="M18.665 21.978A11.94 11.94 0 0 1 12 24C5.377 24 0 18.623 0 12S5.377 0 12 0s12 5.377 12 12c0 3.583-1.574 6.801-4.067 9.001L9.219 7.2H7.2v9.596h1.615V9.251zm-3.332-8.533l1.6 2.061V7.2h-1.6z"/></svg><svg x="158" y="250" width="30" height="30" viewBox="0 0 256 154" overflow="visible"><defs><linearGradient id="i4SVGJSB7ld0l" x1="-2.778%" x2="100%" y1="32%" y2="67.556%"><stop offset="0%" stop-color="#2298bd"/><stop offset="100%" stop-color="#0ed7b5"/></linearGradient></defs><path fill="url(#i4SVGJSB7ld0l)" d="M128 0Q76.8 0 64 51.2Q83.2 25.6 108.8 32c9.737 2.434 16.697 9.499 24.401 17.318C145.751 62.057 160.275 76.8 192 76.8q51.2 0 64-51.2q-19.2 25.6-44.8 19.2c-9.737-2.434-16.697-9.499-24.401-17.318C174.249 14.743 159.725 0 128 0M64 76.8q-51.2 0-64 51.2q19.2-25.6 44.8-19.2c9.737 2.434 16.697 9.499 24.401 17.318C81.751 138.857 96.275 153.6 128 153.6q51.2 0 64-51.2q-19.2 25.6-44.8 19.2c-9.737-2.434-16.697-9.499-24.401-17.318C110.249 91.543 95.725 76.8 64 76.8"/></svg><svg x="210" y="250" width="30" height="30" viewBox="0 0 256 160" overflow="visible"><path fill="#012f55" d="m39.37 0l55.965 94.22l.049-42.649l32.473 50.76l-33.412 52.51l-55.387-89.885l-.128 94.102H0V0zm94.895 44.468l16.203 25.438l.205.353a57.22 57.22 0 0 1 47.854-25.79c31.247 0 56.655 26.446 57.274 57.582l.01 1.052h-.029v.396a7.535 7.535 0 0 1-15.058.224l-.009-.277l-.004-.358c-.125-4.924-2.833-6.922-6.39-8.395l-.526-.213l-.537-.206l-.547-.202l-2.838-1.007l-.58-.213l-.58-.22l-.581-.229l-.29-.119l-.58-.246l-.575-.26c-2.295-1.067-4.49-2.496-6.235-4.77l-.204-.273l-.204-.285l-.304-.447l-.408-.63l-1.29-2.064l-.47-.728l-.37-.553l-.258-.371l-.403-.558l-.28-.372l-.292-.372l-.15-.185l-.309-.368c-3.04-3.553-7.799-6.745-17.003-6.745a28.687 28.687 0 0 0-28.696 28.696a7.5 7.5 0 0 0 .751 3.126l.149.289l34.244 53.89h-37.767l-16.72-25.233l-16.428 25.233H96.284l36.044-56.747l-36.934-57.843zm121.586 66.756a14.4 14.4 0 0 1-1.096 7.896c-1.322 3.058-3.186 3.61-4.428 3.582l-.206-.01l-.193-.02l-.179-.026l-.237-.048l-.196-.053l-.253-.087l-.092-.042l-.111-.063l-.167-.104l-.135-.093l-.148-.11l-.157-.13l-.08-.071l-.161-.156c-.698-.716-1.323-1.94-.213-3.645c.82-1.268 1.957-1.98 3.147-2.618l1.201-.635c1.439-.776 2.827-1.683 3.704-3.567M134.363 0v40.437l-.088.45H95.394l-.01-.45L95.433 0z"/><path fill="#96d8e9" d="M194.368 84.984a21.99 21.99 0 0 0-21.006 14.255a20.95 20.95 0 0 1 24.988-7.886c4.227 1.722 9.784 4.5 14.187 3.013a22.36 22.36 0 0 0-18.169-9.382"/><path fill="#48c4e5" d="M238.484 104.121c0-4.765-2.592-5.87-7.974-7.827c-3.992-1.39-8.522-2.955-11.819-7.26c-.645-.851-1.242-1.81-1.878-2.827a22.7 22.7 0 0 0-5.685-6.85c-3.14-2.308-7.26-3.433-12.601-3.433a26.475 26.475 0 0 0-24.46 16.388a24.822 24.822 0 0 1 42.687 4.138a7.974 7.974 0 0 0 8.913 3.562c5.254-1.125 4.892 3.845 12.827 5.528z"/></svg><svg x="262" y="250" width="30" height="30" viewBox="0 0 256 225" overflow="visible"><path d="M228.747 65.588a38 38 0 0 0-1.62-1.62c-.55-.519-1.07-1.102-1.62-1.62c-.551-.52-1.07-1.102-1.62-1.62c-.551-.52-1.07-1.103-1.62-1.621c-.552-.519-1.07-1.102-1.62-1.62c-.552-.519-1.07-1.102-1.621-1.62c-.551-.52-1.07-1.102-1.62-1.62a85.74 85.74 0 0 1 25.632 59.819c0 53.695-54.505 97.377-121.519 97.377c-37.525 0-71.097-13.707-93.424-35.192l1.62 1.62l1.62 1.62l1.62 1.62l1.621 1.621l1.62 1.62l1.62 1.62l1.621 1.62c22.295 22.393 56.612 36.813 95.044 36.813c67.014 0 121.519-43.682 121.519-97.215c0-22.878-9.851-44.557-27.253-61.602"/><path fill="#fbf0df" d="M234.937 114.066c0 49.288-50.779 89.243-113.418 89.243S8.101 163.354 8.101 114.066c0-30.558 19.443-57.552 49.32-73.56C87.3 24.498 105.9 8.101 121.52 8.101s28.97 13.384 64.097 32.405c29.878 16.008 49.32 43.002 49.32 73.56"/><path fill="#f6dece" d="M234.937 114.066a70.2 70.2 0 0 0-2.593-18.73c-8.846 107.909-140.476 113.093-192.227 80.818a129.62 129.62 0 0 0 81.402 27.155c62.542 0 113.418-40.02 113.418-89.243"/><path fill="#fffefc" d="M77.87 34.576c14.484-8.684 33.733-24.984 52.658-25.017a30.1 30.1 0 0 0-9.009-1.458c-7.842 0-16.203 4.05-26.734 10.143c-3.662 2.139-7.453 4.504-11.472 6.967c-7.55 4.666-16.202 9.948-25.924 15.23c-30.85 16.69-49.288 44.201-49.288 73.625v3.856C27.74 48.542 63.417 43.261 77.87 34.576"/><path fill="#ccbea7" d="M112.186 16.3a53.18 53.18 0 0 1-18.244 40.409c-.907.81-.194 2.365.972 1.912c10.92-4.245 25.665-16.948 19.443-42.58c-.259-1.459-2.17-1.07-2.17.259m7.356 0a52.63 52.63 0 0 1 5.217 43.65c-.388 1.134 1.005 2.106 1.783 1.166c7.096-9.073 13.286-27.09-5.25-46.534c-.94-.842-2.398.454-1.75 1.588zm8.944-.551a53.2 53.2 0 0 1 22.198 38.108a1.07 1.07 0 0 0 2.106.357c2.981-11.31 1.296-30.59-23.235-40.604c-1.296-.518-2.138 1.232-1.069 2.01zM68.666 49.45a54.9 54.9 0 0 0 33.928-29.164c.584-1.167 2.43-.713 2.14.583c-5.607 25.924-24.37 31.336-36.035 30.623c-1.232.032-1.2-1.685-.033-2.042"/><path d="M121.519 211.443C54.505 211.443 0 167.761 0 114.066c0-32.405 20.026-62.64 53.566-80.754c9.721-5.184 18.05-10.402 25.47-14.97c4.083-2.528 7.94-4.894 11.666-7.097C102.076 4.505 111.797 0 121.519 0s18.212 3.889 28.84 10.175c3.241 1.847 6.482 3.856 9.949 6.06c8.069 4.99 17.175 10.629 29.164 17.077c33.54 18.115 53.566 48.316 53.566 80.754c0 53.695-54.505 97.377-121.519 97.377m0-203.342c-7.842 0-16.203 4.05-26.734 10.143c-3.662 2.139-7.453 4.504-11.472 6.967c-7.55 4.666-16.202 9.948-25.924 15.23c-30.85 16.69-49.288 44.201-49.288 73.625c0 49.223 50.876 89.276 113.418 89.276s113.418-40.053 113.418-89.276c0-29.424-18.439-56.936-49.32-73.56c-12.25-6.48-21.81-12.573-29.554-17.369c-3.532-2.17-6.773-4.18-9.722-5.962c-9.818-5.833-16.98-9.074-24.822-9.074"/><path fill="#b71422" d="M144.365 137.722a28.94 28.94 0 0 1-9.463 15.263a22.07 22.07 0 0 1-12.962 6.092a22.17 22.17 0 0 1-13.383-6.092a28.94 28.94 0 0 1-9.333-15.263a2.333 2.333 0 0 1 2.593-2.625h39.988a2.333 2.333 0 0 1 2.56 2.625"/><path fill="#ff6164" d="M108.557 153.244a22.4 22.4 0 0 0 13.351 6.157a22.4 22.4 0 0 0 13.318-6.157a34.5 34.5 0 0 0 3.241-3.468a22.13 22.13 0 0 0-15.879-7.485a19.93 19.93 0 0 0-16.202 9.008c.745.681 1.393 1.33 2.171 1.945"/><path d="M109.076 150.684a17.37 17.37 0 0 1 13.577-6.74a19.44 19.44 0 0 1 12.962 5.476a51 51 0 0 0 2.139-2.495a22.68 22.68 0 0 0-15.263-6.254a20.61 20.61 0 0 0-15.846 7.647a31 31 0 0 0 2.43 2.366"/><path d="M121.81 161.021a24.05 24.05 0 0 1-14.42-6.481a30.85 30.85 0 0 1-10.077-16.365a3.89 3.89 0 0 1 .842-3.24a4.57 4.57 0 0 1 3.662-1.653h39.988a4.67 4.67 0 0 1 3.661 1.653a3.86 3.86 0 0 1 .81 3.24A30.85 30.85 0 0 1 136.2 154.54c-3.93 3.717-9 6-14.388 6.481m-19.993-23.98c-.519 0-.648.227-.68.292a26.86 26.86 0 0 0 8.846 14.16a20.2 20.2 0 0 0 11.828 5.672a20.35 20.35 0 0 0 11.828-5.606a26.9 26.9 0 0 0 8.814-14.161a.68.68 0 0 0-.648-.292z"/><g transform="translate(53.792 88.4)"><ellipse cx="117.047" cy="40.183" fill="#febbd0" rx="18.957" ry="11.147"/><ellipse cx="18.957" cy="40.183" fill="#febbd0" rx="18.957" ry="11.147"/><path d="M27.868 35.71a17.855 17.855 0 1 0-17.822-17.854c0 9.848 7.974 17.837 17.822 17.855m80.268 0A17.855 17.855 0 1 0 90.41 17.857c-.018 9.818 7.908 17.801 17.726 17.855"/><path fill="#fff" d="M22.36 18.99a6.708 6.708 0 1 0 .064-13.416a6.708 6.708 0 0 0-.065 13.416m80.267 0a6.708 6.708 0 1 0-.065 0z"/></g></svg><svg x="314" y="250" width="30" height="30" viewBox="0 0 256 256" overflow="visible"><path fill="#654ff0" d="M157.29 0H256v255.997H0V0h98.71c-.02.458-.068.911-.068 1.375c0 16.215 13.144 29.36 29.358 29.36s29.36-13.145 29.36-29.36c0-.464-.047-.917-.07-1.375m58.327 228.6h17.598l-26.657-90.632h-26.753L157.853 228.6h17.058l4.444-20.18h30.485zm-93.4 0h16.842l21.609-90.632H144.04l-13.236 62.453h-.216l-12.57-62.453h-15.871l-13.984 61.69h-.217l-11.604-61.69H59.39L78.92 228.6h17.166l13.447-61.69h.216zm67.784-68.291h7.13l8.502 33.258h-23.03z"/></svg><svg x="366" y="250" width="30" height="30" viewBox="0 0 256 256" overflow="visible"><defs><linearGradient id="i8SVG6DaOZcwt" x1="50%" x2="50%" y1="0%" y2="100%"><stop offset="0%" stop-color="#2aabee"/><stop offset="100%" stop-color="#229ed9"/></linearGradient></defs><path fill="url(#i8SVG6DaOZcwt)" d="M128 0C94.06 0 61.48 13.494 37.5 37.49A128.04 128.04 0 0 0 0 128c0 33.934 13.5 66.514 37.5 90.51C61.48 242.506 94.06 256 128 256s66.52-13.494 90.5-37.49c24-23.996 37.5-56.576 37.5-90.51s-13.5-66.514-37.5-90.51C194.52 13.494 161.94 0 128 0"/><path fill="#fff" d="M57.94 126.648q55.98-24.384 74.64-32.152c35.56-14.786 42.94-17.354 47.76-17.441c1.06-.017 3.42.245 4.96 1.49c1.28 1.05 1.64 2.47 1.82 3.467c.16.996.38 3.266.2 5.038c-1.92 20.24-10.26 69.356-14.5 92.026c-1.78 9.592-5.32 12.808-8.74 13.122c-7.44.684-13.08-4.912-20.28-9.63c-11.26-7.386-17.62-11.982-28.56-19.188c-12.64-8.328-4.44-12.906 2.76-20.386c1.88-1.958 34.64-31.748 35.26-34.45c.08-.338.16-1.598-.6-2.262c-.74-.666-1.84-.438-2.64-.258c-1.14.256-19.12 12.152-54 35.686c-5.1 3.508-9.72 5.218-13.88 5.128c-4.56-.098-13.36-2.584-19.9-4.708c-8-2.606-14.38-3.984-13.82-8.41c.28-2.304 3.46-4.662 9.52-7.072"/></svg></g>
  </g>
  <g transform="translate(724 62)">
    <rect width="412" height="236" rx="12" fill="#010409" stroke="#21262d"/>
    <path d="M0 12 A12 12 0 0 1 12 0 H400 A12 12 0 0 1 412 12 V40 H0 Z" fill="#0d1117"/>
    <line x1="0" y1="40" x2="412" y2="40" stroke="#21262d"/>
    <circle cx="22" cy="20" r="4.5" fill="#f778ba"/><circle cx="40" cy="20" r="4.5" fill="#e3b341"/><circle cx="58" cy="20" r="4.5" fill="#2dd4bf"/>
    <text x="206" y="25" text-anchor="middle" font-family="ui-monospace, SFMono-Regular, Menlo, monospace" font-size="13" fill="#6e7681">dicex · nx monorepo</text>
    <g font-family="ui-monospace, SFMono-Regular, Menlo, monospace" font-size="15">
      <text x="22" y="78" fill="#e6edf3"><tspan fill="#2dd4bf">$</tspan> bun nx run-many -t build</text>
      <text x="22" y="112" fill="#adbac7"><tspan fill="#2dd4bf">✓</tspan> 10+ apps<tspan fill="#484f58">   ·   </tspan><tspan fill="#2dd4bf">✓</tspan> 1 design system</text>
      <text x="22" y="140" fill="#6e7681">  ui-v2 · api · auth · i18n · ai · layout</text>
      <text x="22" y="176" fill="#e6edf3"><tspan fill="#2dd4bf">$</tspan> bun nx dev ai</text>
      <text x="22" y="204" fill="#818cf8">› ready<tspan fill="#6e7681">  ·  localhost:3600</tspan> <tspan fill="#e6edf3">▍</tspan></text>
    </g></g>
</svg>